<svg xmlns="http://www.w3.org/2000/svg" width="231.555" height="47.181" viewBox="0 0 231.555 47.181"><path d="M40.628,23.384c0,11.627-6.793,23.449-20.249,23.449C6.663,46.833,0,35.076,0,23.384S6.728,0,20.379,0C33.835,0,40.628,11.692,40.628,23.384Zm-7.9.131c0-7.642-4.18-15.219-12.345-15.219-8.3,0-12.411,7.642-12.411,15.219S12.084,38.6,20.379,38.6C28.544,38.6,32.725,31.026,32.725,23.515Z" transform="translate(0 0)"/><path d="M103.477,46a.6.6,0,0,1-.653.523H95.312c-.131,0-.457-.065-.523-.2L73.887,16.35V46a.6.6,0,0,1-.653.523H65.788A.576.576,0,0,1,65.2,46V1.523A.576.576,0,0,1,65.788,1h7.577c.131,0,.457.065.523.2L94.92,31.177V1.523A.6.6,0,0,1,95.573,1h7.381a.6.6,0,0,1,.653.523V46Z" transform="translate(-20.612 0.653)"/><path d="M138.387,9.23V20.4h17.9a.576.576,0,0,1,.588.523v7.25a.576.576,0,0,1-.588.523h-17.9V38.1h21.62a.6.6,0,0,1,.653.523V46.07a.6.6,0,0,1-.653.523H130.353a.6.6,0,0,1-.653-.523V1.523A.6.6,0,0,1,130.353,1H159.42a.6.6,0,0,1,.653.523v7.25a.6.6,0,0,1-.653.523H138.387Z" transform="translate(-44.982 -0.347)"/><path d="M203.207,46a.6.6,0,0,1-.653.523h-7.446A.576.576,0,0,1,194.52,46V28.63H176.753a.6.6,0,0,1-.653-.523V20.922L194.651,1.2a.975.975,0,0,1,.457-.2h7.446a.6.6,0,0,1,.653.523v19.53h4.442V28.63h-4.442ZM185.7,21.053h8.949V11.386Z" transform="translate(-61.074 -0.347)"/><path d="M267.828,23.384c0,11.627-6.793,23.449-20.249,23.449-13.717,0-20.379-11.757-20.379-23.449C227.2,11.757,233.862,0,247.579,0,261.035,0,267.828,11.692,267.828,23.384Zm-7.9.131c0-7.642-4.18-15.219-12.345-15.219-8.3,0-12.411,7.642-12.411,15.219S239.284,38.6,247.579,38.6C255.744,38.6,259.925,31.026,259.925,23.515Z" transform="translate(-78.796)"/><path d="M332.928,23.384c0,11.627-6.793,23.449-20.249,23.449-13.717,0-20.379-11.757-20.379-23.449C292.3,11.757,298.962,0,312.679,0,326.135,0,332.928,11.692,332.928,23.384Zm-7.969.131c0-7.642-4.18-15.219-12.345-15.219-8.3,0-12.411,7.642-12.411,15.219S304.319,38.6,312.614,38.6C320.844,38.6,324.959,31.026,324.959,23.515Z" transform="translate(-101.374)"/></svg>