<?xml version="1.0" encoding="utf-8"?>
<!-- Generator: Adobe Illustrator 23.1.0, SVG Export Plug-In . SVG Version: 6.00 Build 0)  -->
<svg version="1.1" id="Layer_1" xmlns="http://www.w3.org/2000/svg" xmlns:xlink="http://www.w3.org/1999/xlink" x="0px" y="0px"
	 viewBox="0 0 354.5 71.6" style="enable-background:new 0 0 354.5 71.6;" xml:space="preserve">
<style type="text/css">
	.st0{fill:#0567A3;}
</style>
<title>Untitled-1</title>
<path class="st0" d="M62.2,35.8c0,17.8-10.4,35.9-31,35.9c-21,0-31.2-18-31.2-35.9S10.2,0,31.2,0C51.8,0,62.2,17.9,62.2,35.8z
	 M50.1,35.9c0-11.6-6.4-23.3-18.9-23.3c-12.7,0-19,11.6-19,23.3s6.3,23.1,19,23.1C43.7,59.1,50.1,47.5,50.1,35.9L50.1,35.9z"/>
<path class="st0" d="M123.8,69.9c-0.1,0.5-0.5,0.9-1,0.8h-11.4c-0.3,0-0.6-0.1-0.8-0.3L78.5,24.5v45.4c-0.1,0.5-0.5,0.9-1,0.8H66.1
	c-0.5,0-0.9-0.3-0.9-0.8V1.8c0-0.5,0.4-0.8,0.9-0.8h11.6c0.3,0,0.6,0.1,0.8,0.3l32.2,45.9V1.8c0.1-0.5,0.5-0.9,1-0.8h11.3
	c0.5-0.1,0.9,0.3,1,0.8L123.8,69.9L123.8,69.9z"/>
<path class="st0" d="M143,13.6v17.1h27.4c0.5,0,0.9,0.3,0.9,0.8v11.1c0,0.5-0.4,0.8-0.9,0.8H143v14.4h33.1c0.5-0.1,0.9,0.3,1,0.8
	v11.4c-0.1,0.5-0.5,0.9-1,0.8h-45.4c-0.5,0.1-0.9-0.3-1-0.8V1.8c0.1-0.5,0.5-0.9,1-0.8h44.5c0.5-0.1,0.9,0.3,1,0.8v11.1
	c-0.1,0.5-0.5,0.9-1,0.8L143,13.6L143,13.6z"/>
<path class="st0" d="M217.6,69.9c-0.1,0.5-0.5,0.9-1,0.8h-11.4c-0.5,0-0.9-0.3-0.9-0.8V43.3h-27.1c-0.5,0.1-0.9-0.3-1-0.8v-11
	l28.4-30.2c0.2-0.2,0.4-0.3,0.7-0.3h11.4c0.5-0.1,0.9,0.3,1,0.8v29.9h6.8v11.6h-6.8L217.6,69.9L217.6,69.9z M190.8,31.7h13.7V16.9
	L190.8,31.7z"/>
<path class="st0" d="M289.4,35.8c0,17.8-10.4,35.9-31,35.9c-21,0-31.2-18-31.2-35.9S237.5,0,258.4,0C279,0,289.4,17.9,289.4,35.8z
	 M277.3,35.9c0-11.6-6.4-23.3-18.9-23.3c-12.7,0-19,11.6-19,23.3s6.3,23.1,19,23.1C270.9,59.1,277.3,47.5,277.3,35.9L277.3,35.9z"/>
<path class="st0" d="M354.5,35.8c0,17.8-10.4,35.9-31,35.9c-21,0-31.2-18-31.2-35.9S302.5,0,323.5,0C344,0,354.5,17.9,354.5,35.8z
	 M342.3,35.9c0-11.6-6.4-23.3-18.9-23.3c-12.7,0-19,11.6-19,23.3s6.3,23.1,19,23.1C336,59.1,342.3,47.5,342.3,35.9L342.3,35.9z"/>
</svg>
