<svg id="Layer_1" data-name="Layer 1" xmlns="http://www.w3.org/2000/svg" viewBox="0 0 354.48 71.61"><title>Untitled-1</title><path d="M66,180.35c0,17.83-10.43,35.86-31,35.86-21,0-31.2-18-31.2-35.86S14,144.6,35,144.6C55.55,144.6,66,162.52,66,180.35Zm-12.14.2c0-11.65-6.38-23.31-18.88-23.31-12.68,0-19,11.65-19,23.31s6.29,23.11,19,23.11C47.46,203.66,53.84,192.11,53.84,180.55Z" transform="translate(-3.76 -144.6)" style="fill:#231f20"/><path d="M127.6,214.52a0.91,0.91,0,0,1-1,.8H115.15a1.13,1.13,0,0,1-.8-0.3L82.29,169.1v45.42a0.91,0.91,0,0,1-1,.8H69.84a0.88,0.88,0,0,1-.9-0.8V146.39a0.88,0.88,0,0,1,.9-0.8H81.39a1.14,1.14,0,0,1,.8.3l32.17,45.91V146.39a0.91,0.91,0,0,1,1-.8h11.25a0.91,0.91,0,0,1,1,.8v68.12Z" transform="translate(-3.76 -144.6)" style="fill:#231f20"/><path d="M146.76,158.24v17.1h27.39a0.88,0.88,0,0,1,.9.8V187.2a0.88,0.88,0,0,1-.9.8H146.76v14.37h33.07a0.91,0.91,0,0,1,1,.8v11.35a0.91,0.91,0,0,1-1,.8H134.41a0.91,0.91,0,0,1-1-.8V146.39a0.91,0.91,0,0,1,1-.8h44.52a0.91,0.91,0,0,1,1,.8v11.06a0.91,0.91,0,0,1-1,.8H146.76Z" transform="translate(-3.76 -144.6)" style="fill:#231f20"/><path d="M221.39,214.52a0.91,0.91,0,0,1-1,.8H209a0.88,0.88,0,0,1-.9-0.8V187.87H181a0.91,0.91,0,0,1-1-.8v-11l28.39-30.23a1.49,1.49,0,0,1,.7-0.3h11.35a0.91,0.91,0,0,1,1,.8v29.93h6.82v11.55h-6.82v26.64Zm-26.82-38.19h13.67V161.49Z" transform="translate(-3.76 -144.6)" style="fill:#1cb4da"/><path d="M293.2,180.35c0,17.83-10.43,35.86-31,35.86-21,0-31.2-18-31.2-35.86s10.25-35.76,31.2-35.76C282.78,144.6,293.2,162.52,293.2,180.35Zm-12.14.2c0-11.65-6.38-23.31-18.88-23.31-12.68,0-19,11.65-19,23.31s6.29,23.11,19,23.11C274.68,203.66,281.07,192.11,281.07,180.55Z" transform="translate(-3.76 -144.6)" style="fill:#1cb4da"/><path d="M358.24,180.35c0,17.83-10.43,35.86-31,35.86-21,0-31.2-18-31.2-35.86s10.25-35.76,31.2-35.76C347.81,144.6,358.24,162.52,358.24,180.35Zm-12.14.2c0-11.65-6.38-23.31-18.88-23.31-12.68,0-19,11.65-19,23.31s6.29,23.11,19,23.11C339.72,203.66,346.1,192.11,346.1,180.55Z" transform="translate(-3.76 -144.6)" style="fill:#1cb4da"/></svg>